<?xml version="1.0" encoding="UTF-8"?>
<svg id="Capa_2" data-name="Capa 2" xmlns="http://www.w3.org/2000/svg" viewBox="0 0 19.08 19.08">
  <defs>
    <style>
      .cls-1 {
        fill: none;
        stroke: #fff;
        stroke-linecap: round;
        stroke-linejoin: round;
        stroke-width: .75px;
      }
    </style>
  </defs>
  <g>
    <path class="cls-1" d="m11.48,2.37h6.28c.43,0,.77.35.77.77v11.56c0,.43-.35.77-.77.77H1.31c-.43,0-.77-.35-.77-.77V3.14c0-.43.35-.77.77-.77h3.23"/>
    <line class="cls-1" x1=".54" y1="13.77" x2="18.54" y2="13.77"/>
    <rect class="cls-1" x="6.81" y="15.48" width="5.46" height="3.05"/>
    <line class="cls-1" x1="4.54" y1="18.53" x2="14.54" y2="18.53"/>
  </g>
  <g>
    <g>
      <path class="cls-1" d="m12.1,4.67c0,2.28-1.85,4.12-4.12,4.12s-4.12-1.85-4.12-4.12S5.7.55,7.98.55s4.12,1.85,4.12,4.12Z"/>
      <path class="cls-1" d="m10.69,4.67c0,1.5-1.22,2.71-2.71,2.71s-2.71-1.22-2.71-2.71c0-1.5,1.22-2.71,2.71-2.71s2.71,1.22,2.71,2.71Z"/>
      <path class="cls-1" d="m11.24,7.18l1.25,1.07.81.69,1.65,1.41c.18.18.28.42.28.66,0,.24-.1.48-.27.65-.18.18-.41.27-.65.27s-.47-.09-.65-.27l-1.78-2.08-.33-.38-1.07-1.25"/>
    </g>
    <line class="cls-1" x1="11.88" y1="9.57" x2="12.87" y2="8.58"/>
  </g>
</svg>