<?xml version="1.0" encoding="UTF-8"?>
<svg id="Capa_2" data-name="Capa 2" xmlns="http://www.w3.org/2000/svg" viewBox="0 0 19.08 19.08">
  <defs>
    <style>
      .cls-1 {
        fill: none;
        stroke: #fff;
        stroke-linecap: round;
        stroke-linejoin: round;
        stroke-width: .75px;
      }
    </style>
  </defs>
  <g>
    <path class="cls-1" d="m5.98,13.1h5.02c.23,0,.41.18.41.41v3.88h-5.85v-3.88c0-.23.18-.41.41-.41Z" transform="translate(16.99 30.49) rotate(-180)"/>
    <path class="cls-1" d="m6.67,17.39h3.65c0,.64-.52,1.15-1.15,1.15h-1.35c-.64,0-1.15-.52-1.15-1.15h0Z"/>
    <line class="cls-1" x1="11.91" y1="16.61" x2="5.21" y2="16.02"/>
    <line class="cls-1" x1="11.91" y1="15.39" x2="5.21" y2="14.81"/>
    <line class="cls-1" x1="11.91" y1="14.3" x2="5.21" y2="13.71"/>
    <path class="cls-1" d="m14.52,4.9c.3.75.47,1.57.47,2.42,0,2.53-1.45,4.73-3.57,5.8,0,0,0,0,0,0"/>
    <path class="cls-1" d="m12.75,2.42c-1.14-.99-2.63-1.59-4.26-1.59-3.59,0-6.49,2.91-6.49,6.5,0,2.53,1.45,4.73,3.57,5.8"/>
  </g>
  <g>
    <path class="cls-1" d="m6.73,7.28l1.47.78.42,1.61,8.06-6.52c.46-.36.53-1.03.17-1.48l-.58-.73c-.36-.46-1.03-.53-1.48-.17L6.73,7.28Z"/>
    <line class="cls-1" x1="16.23" y1="3.51" x2="14.34" y2="1.12"/>
    <polyline class="cls-1" points="8.62 9.67 5.43 10.25 6.73 7.28"/>
    <line class="cls-1" x1="8.2" y1="8.06" x2="15.29" y2="2.31"/>
  </g>
</svg>