<?xml version="1.0" encoding="UTF-8"?>
<svg id="Capa_2" data-name="Capa 2" xmlns="http://www.w3.org/2000/svg" viewBox="0 0 19.08 19.08">
  <defs>
    <style>
      .cls-1 {
        fill: none;
        stroke: #fff;
        stroke-linecap: round;
        stroke-linejoin: round;
        stroke-width: .75px;
      }
    </style>
  </defs>
  <g>
    <path class="cls-1" d="m16.4,9.78v-4.95c0-1.46-1.18-2.64-2.64-2.64H3.22c-1.46,0-2.64,1.18-2.64,2.64v7.91c0,1.46,1.18,2.64,2.64,2.64h7.19"/>
    <line class="cls-1" x1=".91" y1="5.47" x2="16.07" y2="5.47"/>
    <line class="cls-1" x1="4.21" y1="3.84" x2="4.21" y2=".54"/>
    <line class="cls-1" x1="5.98" y1="3.84" x2="5.98" y2=".54"/>
    <line class="cls-1" x1="12.78" y1="3.84" x2="12.78" y2=".54"/>
    <line class="cls-1" x1="11.01" y1="3.84" x2="11.01" y2=".54"/>
  </g>
  <g>
    <rect class="cls-1" x="6.83" y="7.66" width="3.33" height="1.84"/>
    <rect class="cls-1" x="6.83" y="9.5" width="3.33" height="1.84"/>
    <rect class="cls-1" x="6.83" y="11.34" width="3.33" height="1.84"/>
  </g>
  <g>
    <rect class="cls-1" x="10.16" y="7.66" width="3.33" height="1.84"/>
    <rect class="cls-1" x="10.16" y="9.5" width="3.33" height="1.84"/>
    <polyline class="cls-1" points="12.54 13.18 10.16 13.18 10.16 11.34 13.49 11.34 13.49 12.26"/>
  </g>
  <g>
    <rect class="cls-1" x="3.5" y="7.66" width="3.33" height="1.84"/>
    <rect class="cls-1" x="3.5" y="9.5" width="3.33" height="1.84"/>
    <rect class="cls-1" x="3.5" y="11.34" width="3.33" height="1.84"/>
  </g>
  <g>
    <path class="cls-1" d="m11.99,18.27l-2.25.27.27-2.25c.04-.32.18-.63.41-.86l5.36-5.36c.4-.4,1.04-.4,1.43,0l1,1c.4.4.4,1.04,0,1.43l-5.36,5.36c-.23.23-.53.38-.86.41Z"/>
    <line class="cls-1" x1="10.41" y1="15.43" x2="12.84" y2="17.86"/>
    <line class="cls-1" x1="15.19" y1="10.65" x2="17.62" y2="13.08"/>
    <line class="cls-1" x1="11.63" y1="16.64" x2="16.4" y2="11.87"/>
  </g>
</svg>