<?xml version="1.0" encoding="UTF-8"?>
<svg id="Capa_2" data-name="Capa 2" xmlns="http://www.w3.org/2000/svg" viewBox="0 0 19.08 19.08">
  <defs>
    <style>
      .cls-1 {
        fill: none;
        stroke: #fff;
        stroke-linecap: round;
        stroke-linejoin: round;
        stroke-width: .75px;
      }
    </style>
  </defs>
  <path class="cls-1" d="m17.88,6.54L10.04.71c-.3-.22-.71-.22-1,0L1.2,6.54c-.21.16-.33.4-.33.65v10.52c0,.45.37.82.83.82h4.56c.46,0,.83-.37.83-.82v-4.82c0-.45.37-.82.83-.82h3.23c.46,0,.83.37.83.82v4.82c0,.45.37.82.83.82h4.56c.46,0,.83-.37.83-.82V7.2c0-.26-.12-.5-.33-.65Z"/>
</svg>