<?xml version="1.0" encoding="UTF-8"?>
<svg id="Capa_2" data-name="Capa 2" xmlns="http://www.w3.org/2000/svg" viewBox="0 0 19.08 19.08">
  <defs>
    <style>
      .cls-1 {
        fill: none;
        stroke: #fff;
        stroke-linecap: round;
        stroke-linejoin: round;
        stroke-width: .75px;
      }
    </style>
  </defs>
  <rect class="cls-1" x=".54" y="1.13" width="18" height="16.83" rx="1.27" ry="1.27"/>
  <g>
    <line class="cls-1" x1="9.67" y1="3.04" x2="9.67" y2="8.53"/>
    <path class="cls-1" d="m9.67,3.04s-.5-.77-2.06-.77-2.13.77-2.13.77v5.5s2.07-1.22,4.19,0"/>
    <path class="cls-1" d="m9.67,3.04s.5-.77,2.06-.77,2.13.77,2.13.77v5.5s-2.07-1.22-4.19,0"/>
  </g>
  <polyline class="cls-1" points="13.86 3.65 14.88 3.65 14.88 9.42 4.45 9.42 4.45 3.65 5.48 3.65"/>
  <rect class="cls-1" x="2.37" y="11.69" width="2.41" height="1.37"/>
  <rect class="cls-1" x="6.4" y="11.69" width="2.41" height="1.37"/>
  <rect class="cls-1" x="10.44" y="11.69" width="2.41" height="1.37"/>
  <rect class="cls-1" x="14.47" y="11.69" width="2.41" height="1.37"/>
  <rect class="cls-1" x="2.37" y="14.75" width="2.41" height="1.37"/>
  <rect class="cls-1" x="6.4" y="14.75" width="2.41" height="1.37"/>
  <rect class="cls-1" x="10.44" y="14.75" width="2.41" height="1.37"/>
  <rect class="cls-1" x="14.47" y="14.75" width="2.41" height="1.37"/>
</svg>