<?xml version="1.0" encoding="UTF-8"?>
<svg id="Capa_2" data-name="Capa 2" xmlns="http://www.w3.org/2000/svg" viewBox="0 0 19.08 19.08">
  <defs>
    <style>
      .cls-1 {
        fill: none;
        stroke: #fff;
        stroke-linecap: round;
        stroke-linejoin: round;
        stroke-width: .75px;
      }
    </style>
  </defs>
  <g>
    <rect class="cls-1" x=".54" y="1.46" width="18" height="13.11" rx=".77" ry=".77"/>
    <line class="cls-1" x1=".54" y1="12.86" x2="18.54" y2="12.86"/>
    <rect class="cls-1" x="6.81" y="14.57" width="5.46" height="3.05"/>
    <line class="cls-1" x1="4.54" y1="17.62" x2="14.54" y2="17.62"/>
  </g>
  <g>
    <rect class="cls-1" x="2.33" y="4.03" width="2.92" height="1.3"/>
    <rect class="cls-1" x="6.79" y="4.03" width="2.29" height="1.3"/>
    <rect class="cls-1" x="10.62" y="4.03" width="2.29" height="1.3"/>
    <rect class="cls-1" x="14.46" y="4.03" width="2.29" height="1.3"/>
    <rect class="cls-1" x="2.33" y="6.58" width="2.92" height="1.3"/>
    <rect class="cls-1" x="6.79" y="6.58" width="2.29" height="1.3"/>
    <rect class="cls-1" x="10.62" y="6.58" width="2.29" height="1.3"/>
    <rect class="cls-1" x="14.46" y="6.58" width="2.29" height="1.3"/>
    <rect class="cls-1" x="2.33" y="9.13" width="2.92" height="1.3"/>
    <rect class="cls-1" x="6.79" y="9.13" width="2.29" height="1.3"/>
    <rect class="cls-1" x="10.62" y="9.13" width="2.29" height="1.3"/>
    <rect class="cls-1" x="14.46" y="9.13" width="2.29" height="1.3"/>
  </g>
</svg>