<?xml version="1.0" encoding="UTF-8"?>
<svg id="Capa_2" data-name="Capa 2" xmlns="http://www.w3.org/2000/svg" viewBox="0 0 19.08 19.08">
  <defs>
    <style>
      .cls-1 {
        fill: none;
        stroke: #fff;
        stroke-linecap: round;
        stroke-linejoin: round;
        stroke-width: .75px;
      }
    </style>
  </defs>
  <g>
    <g>
      <path class="cls-1" d="m16.41,11.07v-6.25c0-1.46-1.18-2.64-2.64-2.64H3.22c-1.46,0-2.64,1.18-2.64,2.64v7.91c0,1.46,1.18,2.64,2.64,2.64h7.47"/>
      <line class="cls-1" x1=".92" y1="5.47" x2="16.08" y2="5.47"/>
      <line class="cls-1" x1="4.21" y1="3.84" x2="4.21" y2=".54"/>
      <line class="cls-1" x1="5.98" y1="3.84" x2="5.98" y2=".54"/>
      <line class="cls-1" x1="12.78" y1="3.84" x2="12.78" y2=".54"/>
      <line class="cls-1" x1="11.01" y1="3.84" x2="11.01" y2=".54"/>
    </g>
    <circle class="cls-1" cx="14.56" cy="14.6" r="3.94"/>
    <polyline class="cls-1" points="14.56 12.5 14.56 14.6 15.55 15.59"/>
  </g>
  <g>
    <rect class="cls-1" x="3.65" y="7.51" width="2.2" height="2.2"/>
    <rect class="cls-1" x="7.4" y="7.51" width="2.2" height="2.2"/>
    <rect class="cls-1" x="3.65" y="11.07" width="2.2" height="2.2"/>
    <rect class="cls-1" x="7.4" y="11.07" width="2.2" height="2.2"/>
    <rect class="cls-1" x="11.15" y="7.51" width="2.2" height="2.2"/>
  </g>
</svg>