<?xml version="1.0" encoding="UTF-8"?>
<svg id="Capa_2" data-name="Capa 2" xmlns="http://www.w3.org/2000/svg" viewBox="0 0 19.08 19.08">
  <defs>
    <style>
      .cls-1 {
        fill: none;
        stroke: #fff;
        stroke-linecap: round;
        stroke-linejoin: round;
        stroke-width: .75px;
      }
    </style>
  </defs>
  <g>
    <circle class="cls-1" cx="3.59" cy="4.41" r="1.72"/>
    <path class="cls-1" d="m2.84,5.99l-1.3.69c-.45.24-.75.68-.8,1.18l-.18,1.24c-.05.36.06.72.31.99l1.19,1.24"/>
    <path class="cls-1" d="m2.04,8.29l.1,2.51v6.26c0,.4.33.73.73.73h0c.4,0,.73-.33.73-.73v-4.61"/>
    <path class="cls-1" d="m4.35,5.99l.76.4c.35.19.65.47.84.82l2.12,3.78c.15.26.06.6-.19.76h0c-.27.17-.63.08-.79-.19l-1.94-3.27"/>
    <path class="cls-1" d="m5.15,8.29l-.1,2.51v6.26c0,.4-.33.73-.73.73h0c-.4,0-.73-.33-.73-.73v-4.61"/>
  </g>
  <line class="cls-1" x1="8.07" y1="10.99" x2="11.9" y2="7.16"/>
  <polyline class="cls-1" points="7.23 9.49 7.23 1.3 17.08 1.3 17.08 14.11 7.23 14.11 7.23 11.72"/>
  <line class="cls-1" x1="5.77" y1="1.3" x2="18.54" y2="1.3"/>
</svg>