<?xml version="1.0" encoding="UTF-8"?>
<svg id="Capa_2" data-name="Capa 2" xmlns="http://www.w3.org/2000/svg" viewBox="0 0 19.08 19.08">
  <defs>
    <style>
      .cls-1 {
        fill: none;
        stroke: #fff;
        stroke-linecap: round;
        stroke-linejoin: round;
        stroke-width: .75px;
      }
    </style>
  </defs>
  <g>
    <path class="cls-1" d="m5.74,1.38c3.33-1.55,7.42-.95,10.17,1.8,3.51,3.51,3.51,9.21,0,12.73"/>
    <path class="cls-1" d="m13.34,17.7c-3.33,1.55-7.42.95-10.17-1.8C-.34,12.39-.34,6.69,3.18,3.18"/>
    <polyline class="cls-1" points="1.17 3.18 3.18 3.18 3.18 5.19"/>
    <polyline class="cls-1" points="15.9 13.89 15.9 15.9 17.91 15.9"/>
  </g>
  <g>
    <circle class="cls-1" cx="9.54" cy="9.54" r="3.38"/>
    <path class="cls-1" d="m14.62,11.22c-.08.25-.18.5-.3.73-.13.26-.09.57.12.77h0c.26.26.26.67,0,.92l-.8.8c-.26.26-.67.26-.92,0h0c-.2-.2-.51-.25-.77-.12-.23.12-.48.22-.73.3-.27.09-.46.34-.46.62h0c0,.37-.29.66-.65.66h-1.12c-.36,0-.65-.29-.65-.65h0c0-.29-.19-.54-.46-.63-.25-.08-.5-.18-.73-.3-.26-.13-.56-.09-.77.12h0c-.26.26-.67.26-.92,0l-.8-.8c-.25-.26-.25-.67,0-.92h0c.2-.21.24-.51.11-.77-.12-.23-.22-.48-.3-.73-.09-.27-.34-.46-.62-.46h0c-.36,0-.65-.29-.65-.65v-1.12c0-.36.29-.65.65-.65h0c.29,0,.53-.19.62-.46.08-.25.18-.49.3-.73.13-.26.09-.57-.11-.77h0c-.26-.26-.26-.67,0-.93l.8-.8c.26-.26.67-.26.92,0h0c.2.21.51.25.77.12.23-.12.48-.22.73-.3.27-.09.46-.34.46-.62h0c0-.36.29-.66.65-.66h1.12c.36,0,.65.29.65.65h0c0,.29.19.54.46.63.25.08.5.18.73.3.26.13.56.09.77-.12h0c.26-.26.67-.26.92,0l.8.8c.26.26.26.67,0,.92h0c-.2.21-.24.52-.11.77.12.23.22.48.3.73.09.27.34.46.62.46h0c.36,0,.65.29.65.65v1.12c0,.36-.29.65-.65.65h0c-.29,0-.54.19-.62.46Z"/>
    <circle class="cls-1" cx="9.54" cy="9.54" r="1.77"/>
  </g>
</svg>