<?xml version="1.0" encoding="UTF-8"?>
<svg id="Capa_2" data-name="Capa 2" xmlns="http://www.w3.org/2000/svg" viewBox="0 0 23.59 19.08">
  <defs>
    <style>
      .cls-1 {
        letter-spacing: .05em;
      }

      .cls-2 {
        letter-spacing: .04em;
      }

      .cls-3 {
        fill: #fff;
      }

      .cls-4 {
        fill: #226cb3;
      }

      .cls-5 {
        fill: #19a2db;
      }

      .cls-6 {
        fill: #6373b5;
      }

      .cls-7 {
        fill: #e9e9f4;
        font-family: SourceSansRoman-Semibold, 'Source Sans Variable';
        font-size: 2.69px;
        font-variation-settings: 'wght' 600;
        font-weight: 600;
      }

      .cls-8 {
        letter-spacing: .06em;
      }

      .cls-9 {
        letter-spacing: .05em;
      }

      .cls-10 {
        letter-spacing: .05em;
      }

      .cls-11 {
        letter-spacing: .03em;
      }
    </style>
  </defs>
  <g>
    <path class="cls-4" d="m17.59,9.97c-.21-.74-.56-1.45-1.04-2.05-.96-1.23-2.39-2.04-3.94-2.22-.76-.09-1.56-.03-2.3.18-.74.21-1.45.57-2.05,1.04-1.22.96-2.03,2.39-2.2,3.94-.09.76-.03,1.55.18,2.29.21.74.57,1.45,1.04,2.05.96,1.22,2.39,2.02,3.93,2.2.23.03.47.04.7.04.54,0,1.07-.07,1.59-.22.74-.2,1.45-.56,2.05-1.03,1.23-.95,2.03-2.38,2.21-3.93.09-.76.03-1.55-.17-2.29Zm-10.09,5.06c-.21-.28-.4-.59-.56-.94-.15-.33-.27-.67-.36-1.03-.17-.69-.19-1.43-.07-2.14.11-.7.36-1.36.74-1.97.18-.3.4-.58.63-.83.12-.13.24-.25.37-.36.03-.03.06-.06.1-.08.03-.03.07-.06.1-.08.03-.03.07-.05.1-.08.03-.03.07-.05.1-.08.28-.21.57-.38.88-.53.29-.14.6-.25.96-.35.32-.09.66-.14,1.01-.17.34-.02.68-.02,1.02.03.67.08,1.32.29,1.93.62.33.18.61.37.85.57.27.21.51.46.73.72.24.29.43.57.59.85.17.3.31.62.42.96.22.68.31,1.39.26,2.09-.05.71-.25,1.43-.58,2.06-.34.66-.81,1.25-1.36,1.7-.58.47-1.25.83-1.94,1.04-.37.11-.74.18-1.09.21-.37.03-.74.02-1.11-.02-.37-.05-.73-.13-1.09-.24-.34-.11-.68-.27-1.01-.46-.63-.36-1.19-.87-1.64-1.47Z"/>
    <path class="cls-5" d="m18.64,11.77c-.17-.75-.49-1.48-.94-2.1-.9-1.27-2.29-2.15-3.82-2.4-.75-.13-1.55-.11-2.3.07-.75.17-1.47.49-2.1.94-1.27.89-2.14,2.28-2.4,3.81-.13.75-.11,1.54.06,2.29.17.75.49,1.47.93,2.1.89,1.27,2.28,2.15,3.81,2.41.33.06.66.09,1,.09.44,0,.88-.05,1.3-.14.75-.17,1.48-.49,2.1-.93,1.28-.89,2.16-2.28,2.42-3.82.13-.76.11-1.55-.07-2.3Zm-11.05-.73c.13-.33.3-.66.51-.99.39-.61.93-1.15,1.55-1.56.29-.19.61-.37.97-.51.34-.13.69-.24,1.05-.3.7-.13,1.44-.12,2.14.04.69.15,1.34.43,1.93.84.29.2.56.42.8.67.12.12.24.25.34.39.03.03.05.07.08.1.03.03.05.07.08.1.03.03.05.07.08.1.02.03.05.07.07.11.19.29.36.59.49.91.12.29.22.61.3.98.07.33.11.67.12,1.02,0,.34-.02.68-.08,1.02-.11.67-.35,1.31-.71,1.9-.2.32-.4.59-.61.82-.23.25-.48.49-.76.69-.3.22-.59.4-.88.54-.31.15-.64.28-.98.37-.69.19-1.4.24-2.1.15-.71-.09-1.41-.32-2.03-.68-.64-.37-1.21-.87-1.63-1.44-.44-.6-.77-1.29-.94-1.99-.09-.37-.14-.75-.15-1.1-.01-.37.01-.74.07-1.11.06-.37.16-.73.3-1.07Z"/>
    <path class="cls-6" d="m15.4,9.27c-.49-.58-1.11-1.08-1.79-1.43-.68-.35-1.44-.57-2.2-.64-1.55-.14-3.11.36-4.29,1.37-.59.49-1.08,1.12-1.43,1.8-.35.68-.57,1.45-.64,2.21-.14,1.55.36,3.12,1.37,4.3.5.58,1.12,1.08,1.81,1.43.68.35,1.45.57,2.21.63.16.01.32.02.49.02,1.39,0,2.75-.5,3.81-1.4.58-.49,1.08-1.12,1.43-1.8.35-.68.57-1.45.63-2.21.13-1.55-.37-3.11-1.38-4.28Zm1.11,4.26c-.03.34-.11.7-.23,1.07-.11.34-.26.68-.44,1-.35.62-.83,1.18-1.4,1.62-.56.43-1.19.75-1.88.94-.34.09-.68.16-1.03.18-.17.01-.35.02-.52.01-.04,0-.09,0-.13,0-.04,0-.09,0-.13,0-.04,0-.09,0-.13,0-.04,0-.09,0-.13-.01-.34-.04-.68-.11-1.01-.21-.3-.09-.61-.23-.94-.4-.29-.16-.58-.35-.85-.56-.26-.21-.51-.45-.73-.71-.44-.52-.78-1.11-1-1.77-.12-.36-.2-.68-.24-1-.05-.34-.06-.68-.04-1.03.02-.37.07-.71.15-1.03.08-.34.2-.67.35-.98.3-.65.72-1.23,1.23-1.7.52-.49,1.16-.87,1.83-1.12.61-.22,1.24-.33,1.86-.33.1,0,.19,0,.29,0,.75.04,1.48.24,2.13.56.34.17.66.37.94.59.29.23.56.49.8.77.24.29.45.59.63.92.17.31.31.66.43,1.02.21.69.28,1.45.2,2.19Z"/>
    <g>
      <path class="cls-3" d="m.54,14.26c-.16-.16-.24-.38-.24-.64v-.13s.02-.05.05-.05h.37s.05.02.05.05v.1c0,.15.04.27.11.37.08.09.17.14.29.14s.22-.04.3-.13c.08-.09.12-.2.12-.35,0-.1-.02-.18-.06-.25-.04-.07-.1-.14-.16-.2-.07-.06-.18-.14-.33-.26-.17-.13-.3-.23-.4-.32-.1-.09-.18-.2-.24-.32-.07-.13-.1-.27-.1-.44,0-.27.08-.48.24-.64.16-.16.37-.24.62-.24s.48.08.64.25c.16.17.24.39.24.67v.12s-.02.05-.05.05h-.37s-.05-.02-.05-.05v-.13c0-.15-.04-.27-.11-.36-.08-.09-.18-.14-.3-.14-.12,0-.21.04-.28.12-.07.08-.11.19-.11.34,0,.13.04.24.11.34.07.09.21.21.42.37.2.15.35.27.45.36.1.09.18.19.23.31.05.11.08.24.08.4,0,.28-.08.5-.24.67-.16.17-.37.25-.64.25s-.47-.08-.63-.25Z"/>
      <path class="cls-3" d="m3.62,14.42v-3.38s.02-.05.05-.05h.38s.05.02.05.05v3.38s-.02.05-.05.05h-.38s-.05-.02-.05-.05Z"/>
      <path class="cls-3" d="m7.26,10.99h.37s.05.02.05.05v3.38s-.02.05-.05.05h-.43s-.04-.01-.05-.04l-.85-2.27s0,0-.01,0c0,0,0,0,0,.01v2.26s-.01.05-.04.05h-.38s-.05-.02-.05-.05v-3.38s.02-.05.05-.05h.42s.04.01.05.04l.85,2.27s0,.01.01.01c0,0,0,0,0-.02v-2.26s.02-.05.05-.05Z"/>
      <path class="cls-3" d="m11,11.4h-1.12s-.02,0-.02.02v1.08s0,.02.02.02h.69s.05.02.05.05v.31s-.02.05-.05.05h-.69s-.02,0-.02.02v1.08s0,.02.02.02h1.12s.05.02.05.05v.31s-.02.05-.05.05h-1.57s-.05-.02-.05-.05v-3.38s.02-.05.05-.05h1.57s.05.02.05.05v.31s-.02.05-.05.05Z"/>
      <path class="cls-3" d="m13.95,14.43l-.46-1.48s0-.01-.02-.01h-.35s-.02,0-.02.02v1.47s-.02.05-.05.05h-.38s-.05-.02-.05-.05v-3.38s.02-.05.05-.05h.89c.17,0,.32.04.45.12.13.08.23.2.3.35.07.15.11.32.11.51,0,.21-.04.39-.13.54s-.2.27-.35.34c0,0-.01.02,0,.03l.51,1.53v.02s0,.03-.04.03h-.39s-.05-.01-.06-.04Zm-.85-3.01v1.11s0,.02.02.02h.37c.14,0,.25-.05.33-.16.08-.1.12-.24.12-.42s-.04-.32-.12-.43c-.08-.1-.19-.16-.33-.16h-.37s-.02,0-.02.02Z"/>
      <path class="cls-3" d="m16.14,14.27c-.16-.16-.25-.37-.25-.63v-1.82c0-.26.08-.47.25-.63.16-.16.38-.24.65-.24s.49.08.65.24c.17.16.25.37.25.64v.21s-.02.05-.05.05h-.38s-.05-.02-.05-.05v-.22c0-.14-.04-.25-.12-.33-.08-.08-.18-.12-.31-.12s-.23.04-.31.12c-.08.08-.12.19-.12.33v1.83c0,.14.04.25.12.33.08.08.18.12.31.12s.23-.04.31-.12c.08-.08.12-.19.12-.33v-.55s0-.02-.02-.02h-.38s-.05-.02-.05-.05v-.31s.02-.05.05-.05h.83s.05.02.05.05v.92c0,.26-.08.47-.25.63-.17.16-.38.24-.65.24s-.48-.08-.65-.24Z"/>
      <path class="cls-3" d="m19.33,14.42v-3.38s.02-.05.05-.05h.38s.05.02.05.05v3.38s-.02.05-.05.05h-.38s-.05-.02-.05-.05Z"/>
      <path class="cls-3" d="m22.82,14.42l-.11-.57s0-.01,0-.01c0,0-.01,0-.02,0h-.81s-.01,0-.02,0c0,0,0,0,0,.01l-.1.57s-.02.04-.05.04h-.38s-.03,0-.04-.01c0,0-.01-.02,0-.04l.74-3.38s.02-.04.05-.04h.44s.05.01.05.04l.75,3.38h0s-.01.05-.04.05h-.39s-.05-.01-.05-.04Zm-.87-.97h.66s.01,0,.01-.02l-.34-1.77s0,0,0,0,0,0,0,0l-.33,1.77s0,.02.01.02Z"/>
    </g>
  </g>
  <text class="cls-7" transform="translate(3.2 2.11) scale(1.09 1)"><tspan class="cls-11" x="0" y="0">P</tspan><tspan class="cls-1" x="1.65" y="0">ow</tspan><tspan class="cls-8" x="5.4" y="0">e</tspan><tspan class="cls-2" x="6.91" y="0">r</tspan><tspan class="cls-8" x="8.03" y="0">ed </tspan><tspan class="cls-10" x="11.88" y="0">b</tspan><tspan class="cls-9" x="13.53" y="0">y:</tspan></text>
</svg>