<?xml version="1.0" encoding="UTF-8"?>
<svg id="Capa_2" data-name="Capa 2" xmlns="http://www.w3.org/2000/svg" viewBox="0 0 19.08 19.08">
  <defs>
    <style>
      .cls-1 {
        fill: none;
        stroke: #fff;
        stroke-linecap: round;
        stroke-linejoin: round;
        stroke-width: .75px;
      }
    </style>
  </defs>
  <g>
    <path class="cls-1" d="m14.28,7.49V2.32c0-.67-.54-1.21-1.21-1.21H3.74"/>
    <path class="cls-1" d="m.54,4.21v12.55c0,.67.54,1.21,1.21,1.21h11.32c.67,0,1.21-.54,1.21-1.21v-5.62"/>
    <line class="cls-1" x1="3.26" y1="5.78" x2="11.5" y2="5.78"/>
    <line class="cls-1" x1="3.26" y1="8.46" x2="11.5" y2="8.46"/>
    <line class="cls-1" x1="3.26" y1="11.06" x2="4.9" y2="11.06"/>
    <line class="cls-1" x1="4.27" y1="11.06" x2="11.1" y2="11.06"/>
    <line class="cls-1" x1="3.26" y1="13.66" x2="4.9" y2="13.66"/>
    <line class="cls-1" x1="4.53" y1="13.66" x2="9.02" y2="13.66"/>
    <path class="cls-1" d="m3.74,1.11L.54,4.21h2.48c.4,0,.72-.32.72-.72V1.11Z"/>
  </g>
  <g>
    <path class="cls-1" d="m10.27,15.44l-.42.21c-.53.26-1.13-.23-.97-.8l.13-.45c.15-.54.42-1.05.78-1.48l6.19-7.45c.41-.5,1.15-.56,1.64-.15h0c.5.41.56,1.15.15,1.64l-6.19,7.45c-.36.43-.81.79-1.31,1.04Z"/>
    <path class="cls-1" d="m17.76,6.95l.52.43c.3.25.34.69.09.99l-2.44,2.94"/>
    <line class="cls-1" x1="17.61" y1="5.31" x2="18.38" y2="4.38"/>
  </g>
</svg>